<svg data-v-0dd9719b="" version="1.0" xmlns="http://www.w3.org/2000/svg" xmlns:xlink="http://www.w3.org/1999/xlink" width="100%" height="100%" viewBox="0 0 340.000000 250.000000" preserveAspectRatio="xMidYMid meet" color-interpolation-filters="sRGB" style="margin: auto;"> <rect data-v-0dd9719b="" x="0" y="0" width="100%" height="100%" fill="#fff" fill-opacity="1" class="background"></rect> <rect data-v-0dd9719b="" x="0" y="0" width="100%" height="100%" fill="url(#watermark)" fill-opacity="1" class="watermarklayer"></rect> <g data-v-0dd9719b="" fill="#000000" class="icon-text-wrapper icon-svg-group iconsvg" transform="translate(47.95166778564453,95)"><g class="iconsvg-imagesvg" transform="translate(0,0)"><g><rect fill="#000000" fill-opacity="0" stroke-width="2" x="0" y="0" width="60" height="60" class="image-rect"></rect> <svg x="0" y="0" width="60" height="60" filtersec="colorsb7303638213" class="image-svg-svg primary" style="overflow: visible;"><svg fill="#000000" xmlns="http://www.w3.org/2000/svg" xmlns:xlink="http://www.w3.org/1999/xlink" version="1.0" x="0px" y="0px" viewBox="10 10 80 80" enable-background="new 0 0 100 100" xml:space="preserve"><path d="M68.333,46.667c-11.969,0-21.667,9.694-21.667,21.667C46.667,80.3,56.364,90,68.333,90C80.303,90,90,80.3,90,68.333  C90,56.36,80.303,46.667,68.333,46.667z M68.333,83.333c-8.287,0-15-6.715-15-15c0-8.287,6.713-15,15-15c8.288,0,15,6.713,15,15  C83.333,76.618,76.621,83.333,68.333,83.333z"></path><path d="M76.667,10c-7.363,0-13.334,5.972-13.334,13.335c0,7.362-5.97,13.332-13.333,13.332s-13.333-5.97-13.333-13.333  S30.697,10,23.333,10C15.972,10,10,15.97,10,23.333s5.972,13.333,13.333,13.333c7.363,0,13.332,5.97,13.332,13.333  s-5.968,13.333-13.332,13.333S10,69.304,10,76.667S15.97,90,23.333,90s13.333-5.974,13.333-13.333c0-22.087,17.907-40,40-40.002  C84.03,36.665,90,30.695,90,23.332C90,15.972,84.03,10,76.667,10z M23.333,30c-3.684,0-6.667-2.985-6.667-6.667  c0-3.684,2.983-6.667,6.667-6.667c3.683,0,6.667,2.983,6.667,6.667C30,27.015,27.017,30,23.333,30z M23.333,83.333  c-3.684,0-6.667-2.988-6.667-6.666c0-3.686,2.983-6.667,6.667-6.667C27.017,70,30,72.981,30,76.667  C30,80.345,27.017,83.333,23.333,83.333z M76.667,30C72.981,30,70,27.015,70,23.333c0-3.684,2.981-6.667,6.667-6.667  c3.685,0,6.666,2.983,6.666,6.667C83.333,27.015,80.352,30,76.667,30z"></path></svg></svg> <!----></g></g> <g transform="translate(67,5.290973663330078)"><g data-gra="path-name" fill-rule="" class="tp-name iconsvg-namesvg" transform="translate(0,0)"><g transform="scale(1)"><g><path d="M28.83-26.3L30.94-28.55 34.31-25.73 34.31-25.45 18.56-25.45Q14.48-18 12.09-14.91L12.09-14.91 12.38-14.63 25.88-14.63Q27-16.31 27.14-16.31L27.14-16.31Q29.11-15.05 30.09-14.2L30.09-14.2Q30.09-14.2 29.53-13.64L29.53-13.64Q28.55-12.8 28.55-12.66L28.55-12.66 28.69 2.11Q27.28 3.09 26.16 3.23L26.16 3.23 26.16-0.84 11.81-0.84 11.81 1.69Q10.55 2.67 9.28 2.95L9.28 2.95Q9.7-3.52 9.7-11.95L9.7-11.95Q4.36-6.75 1.13-4.92L1.13-4.92 0.84-5.48Q11.11-13.78 15.33-25.45L15.33-25.45 4.78-25.45 3.23-25.31 2.81-26.3 28.83-26.3ZM26.16-1.69L26.16-13.78 13.5-13.78Q11.67-13.92 11.81-12.23L11.81-12.23 11.81-1.69 26.16-1.69ZM50.48-29.39L50.63-29.67Q53.72-29.39 55.83-27.56L55.83-27.56Q56.53-26.16 54.7-24.75L54.7-24.75 65.11-24.75Q65.25-24.75 65.95-25.73L65.95-25.73Q66.8-26.58 66.8-26.58L66.8-26.58Q69.47-24.75 70.31-23.63L70.31-23.63Q70.31-23.48 69.75-23.48L69.75-23.48Q66.8-23.2 63.7-20.39L63.7-20.39 63.42-20.81Q66.09-24.05 65.53-23.91L65.53-23.91 42.89-23.91Q42.61-20.25 41.06-18.98L41.06-18.98Q39.8-18.14 38.95-18.7L38.95-18.7Q38.11-19.27 38.67-20.39L38.67-20.39Q38.81-20.67 39.38-21.09L39.38-21.09Q41.63-22.92 42.19-26.16L42.19-26.16 42.47-26.16 42.75-24.75 53.58-24.75Q52.73-28.13 50.48-29.39L50.48-29.39ZM59.91-19.41L61.73-21.52 64.69-18.84 64.55-18.56 55.69-18.56Q55.69-18.28 55.41-18.28L55.41-18.28Q54-17.86 51.61-15.75L51.61-15.75Q54.42-13.5 55.83-10.83L55.83-10.83Q60.05-13.36 64.41-17.72L64.41-17.72Q66.94-15.19 66.8-15.05L66.8-15.05Q66.66-14.91 66.52-15.05L66.52-15.05Q65.67-15.19 64.27-14.48L64.27-14.48Q61.31-12.66 58.64-11.25L58.64-11.25Q61.73-3.23 71.02-1.27L71.02-1.27 71.02-0.84Q68.06-0.98 67.36 0.84L67.36 0.84Q67.22 0.98 67.22 0.98L67.22 0.98Q60.05-3.23 57.94-10.97L57.94-10.97 56.11-10.13Q56.95-7.88 57.09-4.22L57.09-4.22Q57.09-0.7 56.25 1.13L56.25 1.13Q54.98 3.66 51.89 4.36L51.89 4.36Q51.89 4.36 51.89 4.22L51.89 4.22Q51.75 1.83 47.95 0.7L47.95 0.7 47.95 0.42Q48.52 0.42 49.36 0.56L49.36 0.56Q52.17 0.98 53.16 0.84L53.16 0.84Q55.69-0.42 54.98-7.31L54.98-7.31Q46.83 0.42 37.41 3.23L37.41 3.23 37.27 2.81Q47.39-1.69 54.42-9.98L54.42-9.98Q54.42-11.11 53.44-12.09L53.44-12.09Q46.13-5.63 38.11-2.53L38.11-2.53 37.97-2.95Q47.95-8.72 52.03-14.06L52.03-14.06Q51.75-14.48 51.05-15.19L51.05-15.19Q45.14-10.97 38.11-8.86L38.11-8.86 38.11-9.42Q47.53-13.64 51.75-18.56L51.75-18.56 45.84-18.56 44.16-18.42 43.45-19.41 59.91-19.41ZM87.89-28.97L88.17-29.25Q91.41-28.13 92.67-26.16L92.67-26.16Q93.09-25.17 91.27-23.48L91.27-23.48 100.83-23.48 102.66-25.73 105.75-22.92 105.61-22.64 79.88-22.64Q79.73-8.16 78.47-4.22L78.47-4.22Q77.48 0.56 72.98 4.08L72.98 4.08 72.84 3.52Q76.22-0.14 76.92-5.63L76.92-5.63Q77.77-10.83 77.06-25.17L77.06-25.17Q79.73-23.91 80.3-23.48L80.3-23.48 90.28-23.48Q89.72-27 87.89-28.97L87.89-28.97ZM90.98-12.23L90.98-22.22Q94.5-21.09 94.5-20.95L94.5-20.95Q94.5-20.81 93.94-20.25L93.94-20.25Q93.38-19.69 93.38-19.55L93.38-19.55 93.38-12.23 99-12.23 100.83-14.48 104.06-11.53 103.92-11.39 93.38-11.39 93.38 0.84 100.97 0.84 103.08-1.55 106.45 1.41 106.31 1.69 80.3 1.69 78.89 1.83 78.19 0.84 90.98 0.84 90.98-11.39 83.39-11.39 81.98-11.11 81.42-12.23 90.98-12.23ZM122.63-29.39L122.77-29.67Q126.84-28.41 127.55-26.86L127.55-26.86Q128.25-25.45 126.56-23.91L126.56-23.91 134.3-23.91 135.84-25.73 138.66-23.48 137.25-22.22 137.39-14.91Q136.13-14.06 134.86-13.92L134.86-13.92 134.86-16.03 116.58-16.03Q116.3-7.73 115.31-4.22L115.31-4.22Q113.63 0.28 108.56 3.38L108.56 3.38 108.42 2.95Q112.08-0.28 113.2-4.64L113.2-4.64Q113.77-6.75 114.05-9.7L114.05-9.7Q114.19-11.95 114.19-18.14L114.19-18.14Q114.19-24.47 114.19-25.88L114.19-25.88 117.42-23.91 125.3-23.91Q125.3-24.05 125.16-24.61L125.16-24.61Q124.88-27 122.63-29.39L122.63-29.39ZM134.86-16.88L134.86-23.06 117.84-23.06Q116.44-23.06 116.58-22.08L116.58-22.08Q116.58-20.81 116.58-16.88L116.58-16.88 134.86-16.88ZM119.39-11.39L119.39-11.39 122.34-9.7 134.44-9.7 135.84-11.39 138.8-9.14 137.25-8.16 137.67 2.95Q136.55 3.8 134.86 3.94L134.86 3.94 134.86 0.98 121.64 0.98 121.64 3.38Q121.64 4.5 119.11 4.36L119.11 4.36Q119.39-1.27 119.39-11.39ZM134.86 0.14L134.86-8.86 122.77-8.86Q121.64-8.86 121.64-7.88L121.64-7.88 121.64 0.14 134.86 0.14ZM170.58-28.97L170.58-28.97Q172.83-27.56 173.39-26.86L173.39-26.86Q171.98-26.02 171.98-25.73L171.98-25.73Q171.98-22.08 172.27-17.86L172.27-17.86Q171.56-17.3 170.02-17.02L170.02-17.02 170.02-18.14 163.55-18.14 165.66-17.16Q165.66-17.16 165.38-16.88L165.38-16.88Q164.81-16.17 164.81-15.89L164.81-15.89Q164.81-14.34 164.95-13.36L164.95-13.36 170.02-13.36Q169.88-13.5 169.59-13.92L169.59-13.92Q168.75-15.61 166.92-16.59L166.92-16.59 167.2-17.02Q170.72-16.45 171.14-15.75L171.14-15.75Q171.7-14.63 170.72-13.36L170.72-13.36 172.97-13.36 174.38-15.47 177.33-12.94 177.33-12.52 164.95-12.52Q165.8-8.02 167.48-5.48L167.48-5.48Q169.45-8.02 171.7-11.25L171.7-11.25 174.52-8.86Q174.38-8.72 174.09-8.86L174.09-8.86Q173.25-8.86 172.41-7.88L172.41-7.88Q171.98-7.45 170.44-6.05L170.44-6.05Q169.03-4.64 168.33-4.08L168.33-4.08Q170.72-0.98 174.66 0.56L174.66 0.56Q175.08 0.42 176.06-4.92L176.06-4.92 176.48-4.92Q176.06 0 177.75 2.67L177.75 2.67Q178.03 2.95 177.89 3.09L177.89 3.09Q172.69 3.8 166.92-2.67L166.92-2.67Q162.56 0.7 157.08 2.81L157.08 2.81 156.94 2.39Q161.86-0.14 165.94-4.08L165.94-4.08Q163.83-7.03 162.98-12.52L162.98-12.52 153.14-12.52Q151.31-12.66 151.59-11.39L151.59-11.39Q151.59-10.97 151.59-10.27L151.59-10.27Q151.59-9.42 151.45-8.72L151.45-8.72 156.94-8.72Q157.78-10.13 157.92-10.27L157.92-10.27Q158.77-9.84 160.45-8.44L160.45-8.44Q160.45-8.3 159.75-7.73L159.75-7.73Q159.33-7.45 159.33-7.45L159.33-7.45Q158.91-2.11 158.06-0.98L158.06-0.98Q157.08 0.56 154.83 0.7L154.83 0.7Q154.83 0.7 154.69 0.42L154.69 0.42Q154.13-1.27 151.45-2.25L151.45-2.25 151.59-2.81Q155.39-1.69 156.09-1.97L156.09-1.97Q156.94-2.53 157.36-7.88L157.36-7.88 151.45-7.88Q150.89-0.42 145.13 3.66L145.13 3.66 144.7 3.38Q148.08-0.42 148.78-3.66L148.78-3.66Q149.77-6.89 149.48-14.48L149.48-14.48 151.73-13.36 162.98-13.36Q162.56-16.31 162.42-18.14L162.42-18.14 152.72-18.14 152.72-17.02Q152.02-16.31 150.61-16.17L150.61-16.17 150.75-28.69 153.56-27.42 169.17-27.42Q169.31-27.42 170.02-28.41L170.02-28.41Q170.58-28.97 170.58-28.97ZM170.02-23.2L170.02-26.58 154.41-26.58Q152.44-26.86 152.72-25.31L152.72-25.31 152.72-23.2 170.02-23.2ZM170.02-18.84L170.02-22.36 152.72-22.36 152.72-18.84 170.02-18.84Z" transform="translate(-0.8400000333786011, 29.670000076293945)"></path></g> <!----> <!----> <!----> <!----> <!----> <!----> <!----></g></g> <g data-gra="path-slogan" fill-rule="" class="tp-slogan iconsvg-slogansvg" fill="#000000" transform="translate(16.1925048828125,40.045555114746094)"><!----> <!----> <g transform="scale(1, 1)"><g transform="scale(1)"><path d="M7.17-6.09L7.17-6.09L6.09-6.09Q6-7.73 3.94-7.83L3.94-7.83Q2.02-7.78 2.02-6.33L2.02-6.33Q2.02-5.39 3.05-5.25L3.05-5.25L5.48-4.69Q7.41-4.22 7.41-2.34L7.41-2.34Q7.36 0.05 4.03 0.14L4.03 0.14Q2.20 0.14 1.45-0.61L1.45-0.61Q0.52-1.31 0.56-2.77L0.56-2.77L1.69-2.77Q1.73-0.80 4.03-0.75L4.03-0.75Q6.28-0.80 6.33-2.20L6.33-2.20Q6.52-3.38 4.45-3.75L4.45-3.75L2.67-4.13Q0.84-4.64 0.84-6.19L0.84-6.19Q0.98-8.72 3.84-8.81L3.84-8.81Q7.08-8.81 7.17-6.09ZM10.03-5.06L14.53-5.06L14.53-8.58L15.70-8.58L15.70 0L14.53 0L14.53-3.98L10.03-3.98L10.03 0L8.86 0L8.86-8.58L10.03-8.58L10.03-5.06ZM17.67-8.58L18.84-8.58L18.84 0L17.67 0L17.67-8.58ZM20.11-1.92L20.11-2.77L21.19-2.77L21.19-2.16Q21.19-0.75 22.50-0.75L22.50-0.75Q23.86-0.75 23.86-2.25L23.86-2.25L23.86-8.58L25.03-8.58L25.03-2.30Q24.98 0.09 22.55 0.14L22.55 0.14Q20.25 0.09 20.11-1.92L20.11-1.92ZM27-8.58L28.17-8.58L28.17 0L27 0L27-8.58ZM35.81 0L34.97-2.48L31.50-2.48L30.61 0L29.44 0L32.67-8.58L33.98-8.58L37.08 0L35.81 0ZM33.23-7.31L31.88-3.52L34.55-3.52L33.28-7.31L33.23-7.31ZM38.95-1.03L44.25-1.03L44.25 0L37.50 0L37.50-0.94L42.75-7.59L37.88-7.59L37.88-8.58L44.25-8.58L44.25-7.59L38.95-1.03ZM46.55-5.06L51.05-5.06L51.05-8.58L52.22-8.58L52.22 0L51.05 0L51.05-3.98L46.55-3.98L46.55 0L45.38 0L45.38-8.58L46.55-8.58L46.55-5.06ZM59.67-3.19L59.67-8.58L60.84-8.58L60.84-3.05Q60.70 0.05 57.33 0.14L57.33 0.14Q54.19 0.05 54.05-2.86L54.05-2.86L54.05-8.58L55.22-8.58L55.22-3.19Q55.27-0.84 57.38-0.80L57.38-0.80Q59.67-0.84 59.67-3.19L59.67-3.19ZM68.30 0L67.45-2.48L63.98-2.48L63.09 0L61.92 0L65.16-8.58L66.47-8.58L69.56 0L68.30 0ZM65.72-7.31L64.36-3.52L67.03-3.52L65.77-7.31L65.72-7.31ZM72-8.58L76.31-1.64L76.31-8.58L77.44-8.58L77.44 0L76.13 0L71.77-6.94L71.72-6.94L71.72 0L70.59 0L70.59-8.58L72-8.58ZM85.64-3.61L83.02-3.61L83.02-4.59L86.77-4.59L86.77 0L86.02 0L85.73-1.08Q84.75 0.09 82.92 0.14L82.92 0.14Q81.19 0.14 80.25-0.75L80.25-0.75Q78.84-2.06 78.89-4.36L78.89-4.36Q79.22-8.63 82.97-8.81L82.97-8.81Q86.16-8.63 86.63-6L86.63-6L85.50-6Q85.03-7.78 82.92-7.83L82.92-7.83Q80.25-7.64 80.11-4.31L80.11-4.31Q80.11-0.75 82.97-0.75L82.97-0.75Q84-0.75 84.75-1.31L84.75-1.31Q85.69-2.06 85.64-3.61L85.64-3.61ZM96.89-1.08L96-1.78L96.61-2.48L97.69-1.64Q98.67-2.63 98.67-4.27L98.67-4.27Q98.48-7.64 95.67-7.83L95.67-7.83Q92.81-7.69 92.67-4.27L92.67-4.27Q92.81-0.94 95.67-0.80L95.67-0.80Q96.38-0.80 96.89-1.08L96.89-1.08ZM98.63-0.94L99.75-0.05L99.19 0.56L97.88-0.33Q97.03 0.14 95.67 0.14L95.67 0.14Q91.73 0 91.45-4.27L91.45-4.27Q91.69-8.72 95.67-8.81L95.67-8.81Q99.56-8.67 99.84-4.27L99.84-4.27Q99.80-2.20 98.63-0.94L98.63-0.94ZM101.39-8.58L102.56-8.58L102.56 0L101.39 0L101.39-8.58ZM110.81-6.09L110.81-6.09L109.73-6.09Q109.64-7.73 107.58-7.83L107.58-7.83Q105.66-7.78 105.66-6.33L105.66-6.33Q105.66-5.39 106.69-5.25L106.69-5.25L109.13-4.69Q111.05-4.22 111.05-2.34L111.05-2.34Q111 0.05 107.67 0.14L107.67 0.14Q105.84 0.14 105.09-0.61L105.09-0.61Q104.16-1.31 104.20-2.77L104.20-2.77L105.33-2.77Q105.38-0.80 107.67-0.75L107.67-0.75Q109.92-0.80 109.97-2.20L109.97-2.20Q110.16-3.38 108.09-3.75L108.09-3.75L106.31-4.13Q104.48-4.64 104.48-6.19L104.48-6.19Q104.63-8.72 107.48-8.81L107.48-8.81Q110.72-8.81 110.81-6.09ZM113.67-5.06L118.17-5.06L118.17-8.58L119.34-8.58L119.34 0L118.17 0L118.17-3.98L113.67-3.98L113.67 0L112.50 0L112.50-8.58L113.67-8.58L113.67-5.06ZM122.44-1.03L127.59-1.03L127.59 0L121.27 0L121.27-8.58L127.50-8.58L127.50-7.59L122.44-7.59L122.44-4.92L127.13-4.92L127.13-3.89L122.44-3.89L122.44-1.03ZM130.50-8.58L134.81-1.64L134.81-8.58L135.94-8.58L135.94 0L134.63 0L130.27-6.94L130.22-6.94L130.22 0L129.09 0L129.09-8.58L130.50-8.58ZM144.14-3.61L141.52-3.61L141.52-4.59L145.27-4.59L145.27 0L144.52 0L144.23-1.08Q143.25 0.09 141.42 0.14L141.42 0.14Q139.69 0.14 138.75-0.75L138.75-0.75Q137.34-2.06 137.39-4.36L137.39-4.36Q137.72-8.63 141.47-8.81L141.47-8.81Q144.66-8.63 145.13-6L145.13-6L144-6Q143.53-7.78 141.42-7.83L141.42-7.83Q138.75-7.64 138.61-4.31L138.61-4.31Q138.61-0.75 141.47-0.75L141.47-0.75Q142.50-0.75 143.25-1.31L143.25-1.31Q144.19-2.06 144.14-3.61L144.14-3.61Z" transform="translate(-0.5602678571428572, 8.8125)"></path></g></g></g></g></g><defs v-gra="od"></defs></svg>